<!DOCTYPE svg PUBLIC "-//W3C//DTD SVG 1.1//EN" "http://www.w3.org/Graphics/SVG/1.1/DTD/svg11.dtd">
<!-- Uploaded to: SVG Repo, www.svgrepo.com, Transformed by: SVG Repo Mixer Tools -->
<svg height="800px" width="800px" version="1.1" id="Layer_1" xmlns="http://www.w3.org/2000/svg" xmlns:xlink="http://www.w3.org/1999/xlink" viewBox="0 0 512.432 512.432" xml:space="preserve" fill="#000000">
<g id="SVGRepo_bgCarrier" stroke-width="0"/>
<g id="SVGRepo_tracerCarrier" stroke-linecap="round" stroke-linejoin="round"/>
<g id="SVGRepo_iconCarrier"> <g transform="translate(1 1)"> <path style="fill:#f9e66c;" d="M431.002,8.383L386.629,25.45c-20.48,5.12-40.96,7.68-61.44,7.68H185.242 c-20.48,0-40.96-2.56-60.587-7.68L80.282,8.383C66.629,4.97,55.536,17.77,59.802,30.57l24.747,62.293 c-22.187,100.693-22.187,209.067,0,324.267l-20.48,61.44c-5.12,11.947,5.12,25.6,17.92,23.04l50.347-8.533 c7.68-1.707,15.36-2.56,22.187-3.413c15.36-2.56,29.867-4.267,45.227-4.267h109.227c15.36,0,29.867,1.707,45.227,4.267 c6.827,1.707,14.507,2.56,22.187,3.413l50.347,8.533c12.8,2.56,23.04-11.093,17.92-23.04l-18.773-61.44 c23.04-118.613,23.04-226.987,0-324.267l24.747-62.293C454.896,17.77,443.802,4.97,431.002,8.383"/> <path style="fill:#fdbd63;" d="M431.002,8.383l-8.533,3.413c5.12,4.267,6.827,11.947,4.267,19.627l-21.333,62.293 c19.627,97.28,20.48,205.653,0,324.267l17.92,61.44c2.56,8.533-0.853,17.067-6.827,21.333l11.093,1.707 c12.8,2.56,23.04-11.093,17.92-23.04l-19.627-61.44c23.04-118.613,23.04-226.987,0-324.267l24.747-62.293 C454.896,18.623,443.802,4.97,431.002,8.383"/> <path style="fill:#FFFFFF;" d="M87.109,479.423l17.92-61.44c-19.627-115.2-19.627-223.573,0-324.267L83.696,31.423 c-2.56-7.68,0-15.36,4.267-19.627l-8.533-3.413c-12.8-3.413-23.893,10.24-19.627,23.04l24.747,62.293 c-22.187,100.693-22.187,209.067,0,324.267l-20.48,61.44c-5.12,11.947,5.12,25.6,17.92,23.04l11.093-1.707 C87.962,496.49,84.549,487.957,87.109,479.423"/> <g> <path style="fill:#1CD759;" d="M320.069,200.383l-30.72,3.413l3.413-30.72c1.707-13.653,12.8-25.6,26.453-26.453l29.867-2.56 l-2.56,29.867C344.816,187.583,333.722,198.677,320.069,200.383"/> <path style="fill:#1CD759;" d="M262.042,273.77l-23.893-18.773l23.893-18.773c11.093-8.533,26.453-8.533,37.547,0l23.893,18.773 l-23.893,18.773C288.496,283.157,273.136,283.157,262.042,273.77"/> <path style="fill:#1CD759;" d="M256.922,231.103l-18.773,23.893l-18.773-23.893c-8.533-11.093-8.533-26.453,0-37.547 l18.773-23.893l18.773,23.893C266.309,204.65,266.309,220.01,256.922,231.103"/> <path style="fill:#1CD759;" d="M202.309,333.503l-23.893-18.773l23.893-18.773c11.093-8.533,26.453-8.533,37.547,0l23.893,18.773 l-23.893,18.773C228.762,342.89,213.402,342.89,202.309,333.503"/> <path style="fill:#1CD759;" d="M197.189,290.837l-18.773,23.893l-18.773-23.893c-8.533-11.093-8.533-26.453,0-37.547 l18.773-23.893l18.773,23.893C206.576,264.383,206.576,279.743,197.189,290.837"/> <path style="fill:#1CD759;" d="M202.309,333.503l-23.893-18.773l-18.773-23.893c-0.853-0.853-1.707-1.707-1.707-2.56 c-8.533,5.973-13.653,15.36-13.653,26.453c0,18.773,15.36,34.133,34.133,34.133c11.093,0,20.48-5.12,26.453-12.8 C204.016,335.21,203.162,334.357,202.309,333.503"/> </g> <path d="M297.882,417.13h-85.333c-5.12,0-8.533-3.413-8.533-8.533s3.413-8.533,8.533-8.533h85.333c5.12,0,8.533,3.413,8.533,8.533 S303.002,417.13,297.882,417.13z"/> <path d="M289.349,212.33c-2.56,0-4.267-0.853-5.973-2.56c-1.707-1.707-2.56-4.267-2.56-6.827l3.413-30.72 c1.707-17.92,16.213-32.427,34.133-34.133l29.867-2.56c2.56,0,5.12,0.853,6.827,2.56c1.707,1.707,2.56,4.267,2.56,6.827 l-2.56,29.867c-1.707,17.92-16.213,32.427-34.133,34.133l-30.72,3.413H289.349z M339.696,153.45l-19.627,1.707 c-10.24,0.853-17.92,9.387-18.773,18.773l-2.56,19.627l19.627-2.56l0,0c10.24-0.853,17.92-9.387,18.773-18.773L339.696,153.45z"/> <path d="M280.816,289.13c-8.533,0-17.067-2.56-23.893-8.533l-23.893-18.773c-2.56-1.707-3.413-4.267-3.413-6.827 s0.853-5.12,3.413-6.827l23.893-18.773c14.507-11.093,34.133-11.093,48.64,0l23.893,18.773c1.707,1.707,3.413,4.267,3.413,6.827 s-0.853,5.12-3.413,6.827l-23.893,18.773C297.882,286.57,289.349,289.13,280.816,289.13z M251.802,254.997l15.36,11.947l0,0 c7.68,6.827,18.773,5.973,27.307,0l15.36-11.947l-15.36-12.8c-7.68-5.973-18.773-5.973-27.307,0L251.802,254.997z"/> <path d="M238.149,263.53L238.149,263.53c-2.56,0-5.12-0.853-6.827-3.413l-18.773-23.893c-11.093-14.507-11.093-34.133,0-48.64 l18.773-23.893c1.707-1.707,4.267-3.413,6.827-3.413l0,0c2.56,0,5.12,0.853,6.827,3.413l18.773,23.893 c11.093,14.507,11.093,34.133,0,48.64l0,0l-18.773,23.893C243.269,262.677,240.709,263.53,238.149,263.53z M238.149,183.317 l-11.947,15.36c-6.827,7.68-6.827,18.773,0,27.307l11.947,15.36l12.8-15.36c6.827-7.68,6.827-18.773,0-27.307L238.149,183.317z M256.922,231.103L256.922,231.103L256.922,231.103z"/> <path d="M221.082,348.863c-8.533,0-17.067-2.56-23.893-8.533l-23.893-18.773c-2.56-1.707-3.413-4.267-3.413-6.827 s0.853-5.12,3.413-6.827l23.893-18.773c14.507-11.093,34.133-11.093,48.64,0l23.893,18.773c1.707,1.707,3.413,4.267,3.413,6.827 s-0.853,5.12-3.413,6.827l-23.893,18.773C238.149,346.303,229.616,348.863,221.082,348.863z M192.069,314.73l15.36,11.947l0,0 c7.68,6.827,18.773,5.973,27.307,0l15.36-11.947l-15.36-12.8c-7.68-5.973-18.773-5.973-27.307,0L192.069,314.73z"/> <path d="M178.416,323.263L178.416,323.263c-2.56,0-5.12-0.853-6.827-3.413l-18.773-23.893c-11.093-14.507-11.093-34.133,0-48.64 l18.773-23.893c1.707-1.707,4.267-3.413,6.827-3.413l0,0c2.56,0,5.12,0.853,6.827,3.413l18.773,23.893 c11.093,14.507,11.093,34.133,0,48.64l-18.773,23.893C183.536,322.41,180.976,323.263,178.416,323.263z M178.416,243.05 l-11.947,15.36c-5.973,7.68-5.973,18.773,0,27.307l11.947,15.36l11.947-15.36l0,0c6.827-7.68,6.827-18.773,0-27.307L178.416,243.05 z"/> <path d="M349.082,263.53h-25.6c-5.12,0-8.533-3.413-8.533-8.533c0-5.12,3.413-8.533,8.533-8.533h25.6 c5.12,0,8.533,3.413,8.533,8.533C357.616,260.117,354.202,263.53,349.082,263.53z"/> <path d="M289.349,323.263h-25.6c-5.12,0-8.533-3.413-8.533-8.533s3.413-8.533,8.533-8.533h25.6c5.12,0,8.533,3.413,8.533,8.533 S294.469,323.263,289.349,323.263z"/> <path d="M238.149,178.197c-5.12,0-8.533-3.413-8.533-8.533v-25.6c0-5.12,3.413-8.533,8.533-8.533c5.12,0,8.533,3.413,8.533,8.533 v25.6C246.682,174.783,243.269,178.197,238.149,178.197z"/> <path d="M178.416,237.93c-5.12,0-8.533-3.413-8.533-8.533v-25.6c0-5.12,3.413-8.533,8.533-8.533c5.12,0,8.533,3.413,8.533,8.533 v25.6C186.949,234.517,183.536,237.93,178.416,237.93z"/> <path d="M349.082,152.597c-2.56,0-4.267-0.853-5.973-2.56c-3.413-3.413-3.413-8.533,0-11.947l17.067-17.067 c3.413-3.413,8.533-3.413,11.947,0c3.413,3.413,3.413,8.533,0,11.947l-17.067,17.067 C353.349,151.743,351.642,152.597,349.082,152.597z"/> <path d="M178.416,357.397c-23.893,0-42.667-18.773-42.667-42.667c0-12.8,5.973-25.6,16.213-33.28 c1.707-1.707,4.267-1.707,6.827-1.707s4.267,1.707,5.973,4.267c0.853,0.853,0.853,1.707,1.707,2.56l18.773,23.04l23.04,18.773l0,0 c0.853,0.853,0.853,0.853,1.707,0.853c1.707,0.853,3.413,3.413,4.267,5.973c0,2.56,0,5.12-1.707,6.827 C204.016,351.423,191.216,357.397,178.416,357.397z M157.082,301.077c-2.56,4.267-4.267,8.533-4.267,13.653 c0,14.507,11.093,25.6,25.6,25.6c5.12,0,9.387-1.707,13.653-4.267l-18.773-15.36c-0.853,0-0.853-0.853-1.707-1.707L157.082,301.077 z"/> <path d="M135.749,365.93c-2.56,0-4.267-0.853-5.973-2.56c-3.413-3.413-3.413-8.533,0-11.947l18.773-18.773 c3.413-3.413,8.533-3.413,11.947,0c3.413,3.413,3.413,8.533,0,11.947l-18.773,18.773 C140.016,365.077,138.309,365.93,135.749,365.93z"/> <path d="M79.429,510.143c-7.68,0-14.507-3.413-19.627-9.387c-5.973-6.827-7.68-17.067-4.267-25.6l20.48-58.88 c-22.187-113.493-22.187-221.867,0-323.413L52.976,33.13c-4.267-8.533-2.56-17.92,4.267-25.6c5.973-6.827,16.213-10.24,24.747-7.68 h0.853l44.373,17.067c18.773,5.12,38.4,7.68,58.027,7.68h139.947c19.627,0,39.253-2.56,58.027-7.68L427.589-0.15h0.853 c9.387-2.56,18.773,0.853,24.747,7.68c6.827,7.68,8.533,17.067,4.267,26.453l-23.04,59.733c22.187,97.28,22.187,205.653,0,323.413 l19.627,59.733c3.413,8.533,1.707,17.92-4.267,25.6c-5.973,6.827-14.507,10.24-23.893,8.533l-50.347-8.533 c-3.413-0.853-6.827-0.853-10.24-1.707c-4.267-0.853-8.533-0.853-11.947-1.707c-14.507-3.413-29.867-5.12-43.52-5.12H200.602 c-13.653,0-29.013,1.707-43.52,4.267c-4.267,0.853-7.68,1.707-11.947,1.707c-3.413,0.853-6.827,0.853-10.24,1.707l-50.347,8.533 C82.842,510.143,81.136,510.143,79.429,510.143z M75.162,16.063c-2.56,0-4.267,1.707-5.12,2.56c-2.56,2.56-3.413,5.973-1.707,9.387 l24.747,62.293c0,0.853,0,2.56,0,4.267c-22.187,99.84-22.187,208.213,0,320.853c0,1.707,0,2.56,0,4.267l-20.48,61.44 c-1.707,3.413-0.853,6.827,0.853,9.387c0.853,0.853,3.413,3.413,7.68,2.56l50.347-8.533c3.413-0.853,6.827-0.853,10.24-1.707 c4.267-0.853,7.68-0.853,11.947-1.707c16.213-2.56,31.573-4.267,46.933-4.267h109.227c14.507,0,30.72,1.707,46.933,4.267 c3.413,0.853,7.68,0.853,11.947,1.707c3.413,0.853,6.827,0.853,10.24,1.707l50.347,8.533c4.267,0.853,6.827-1.707,7.68-2.56 c1.707-2.56,2.56-5.973,1.707-8.533l-21.333-62.293c0-0.853,0-2.56,0-4.267c22.187-116.907,22.187-224.427,0-320.853 c0-1.707,0-3.413,0-5.12l24.747-62.293c1.707-2.56,0.853-5.973-1.707-8.533c-0.853-0.853-3.413-3.413-7.68-2.56L388.336,33.13 h-0.853c-19.627,5.973-40.96,8.533-62.293,8.533H185.242c-21.333,0-42.667-2.56-63.147-7.68h-0.853l-44.373-17.92 C76.869,16.063,76.016,16.063,75.162,16.063z M385.776,25.45L385.776,25.45L385.776,25.45z"/> <path d="M314.949,451.263H195.482c-5.12,0-8.533-3.413-8.533-8.533s3.413-8.533,8.533-8.533h119.467 c5.12,0,8.533,3.413,8.533,8.533S320.069,451.263,314.949,451.263z"/> </g> </g>
</svg>